<svg xmlns="http://www.w3.org/2000/svg" xmlns:xlink="http://www.w3.org/1999/xlink" xml:space="preserve" width="898.5" height="980.9"><defs><radialGradient xlink:href="#a" id="e" cx="698.3" cy="327.7" r="207.8" fx="698.3" fy="327.7" gradientTransform="matrix(-2 .6 -1.4 -4.68 2589 1214)" gradientUnits="userSpaceOnUse"/><radialGradient xlink:href="#b" id="g" cx="709.3" cy="329.3" r="207.8" fx="709.3" fy="329.3" gradientTransform="matrix(2.09 .71 1.58 -4.63 -657 1119)" gradientUnits="userSpaceOnUse"/><radialGradient xlink:href="#c" id="h" cx="709.3" cy="329.3" r="207.8" fx="709.3" fy="329.3" gradientTransform="matrix(2.09 .71 1.58 -4.63 -657 1119)" gradientUnits="userSpaceOnUse"/><radialGradient xlink:href="#d" id="f" cx="709.3" cy="329.3" r="207.8" fx="709.3" fy="329.3" gradientTransform="matrix(-2.09 .71 -1.58 -4.63 2696 1119)" gradientUnits="userSpaceOnUse"/><linearGradient id="d"><stop offset="0" style="stop-color:#30917f;stop-opacity:.3751891"/><stop offset="1" style="stop-color:#194854;stop-opacity:.61270803"/></linearGradient><linearGradient id="c"><stop offset="0" style="stop-color:#9ecd1b;stop-opacity:.85476553"/><stop offset="1" style="stop-color:#215625;stop-opacity:.44175491"/></linearGradient><linearGradient id="b"><stop offset=".2" style="stop-color:#bde538;stop-opacity:1"/><stop offset="1" style="stop-color:#33973e;stop-opacity:1"/></linearGradient><linearGradient id="a"><stop offset=".1" style="stop-color:#38a6b7;stop-opacity:1"/><stop offset="1" style="stop-color:#1e457a;stop-opacity:1"/></linearGradient></defs><g fill="#15798f"><path d="M672 820c-26-47-44-98-56-149a906 906 0 0 1 22-479c12-34 23-69 44-105a544 544 0 0 1 275 235c44 80 61 176 34 264-25 101-71 200-62 306 5 65 29 132 80 175a451 451 0 0 1-337-247z" style="fill:url(#e)" transform="translate(-594 -87)"/><path d="M877 550c17-153-32-339-196-462 141 54 284 292 242 502-33 163-50 358 86 477-182-138-153-326-132-517z" style="fill:url(#f)" transform="translate(-594 -87)"/><path d="M1368 821c26-47 44-98 57-149 34-158 29-327-23-479-12-34-23-69-44-105a544 544 0 0 0-275 235c-44 80-60 176-34 264 25 101 71 200 62 306-5 65-29 131-80 175a451 451 0 0 0 337-247z" style="fill:url(#g)" transform="translate(-548 -87)"/><path d="M1163 550a504 504 0 0 1 196-463c-141 55-284 292-242 502 33 164 50 359-86 478 182-138 153-327 132-517z" style="fill:url(#h)" transform="translate(-548 -87)"/></g></svg>